<?xml version="1.0" encoding="UTF-8"?>
<svg xmlns="http://www.w3.org/2000/svg" version="1.1" viewBox="0 0 500 500">
  <defs>
    <style>
      .cls-1 {
        fill: #fff;
      }

      .cls-2 {
        fill: #1a486a;
      }
    </style>
  </defs>
  <!-- Generator: Adobe Illustrator 28.7.1, SVG Export Plug-In . SVG Version: 1.2.0 Build 142)  -->
  <g>
    <g id="Layer_1">
      <g>
        <path class="cls-2" d="M.28.28h499.45v499.45H.28c0-166.48,0-332.96,0-499.45ZM285.16,322.11c-.26,3.86-.48,7.35-.72,10.85-1.52,22.38-3.07,44.75-4.57,67.13-.82,12.25-1.48,24.51-2.31,36.75-.55,8.05,4,14.96,11.32,16.85,7.12,1.85,14.6-1.87,17.74-9.09,1.1-2.52,1.84-5.28,2.24-8.01,1.17-8.01,2.08-16.05,3.09-24.08,1.93-15.4,3.84-30.81,5.8-46.2,1.8-14.21,3.67-28.41,5.46-42.63.15-1.17.54-1.6,1.73-1.56,2.05.08,4.12.08,6.17,0,1.28-.06,1.7.41,1.85,1.66.69,5.73,1.5,11.44,2.23,17.16,1.68,13.02,3.34,26.05,5.01,39.07,1.54,12.04,3.05,24.08,4.61,36.12,1,7.69,1.94,15.4,3.16,23.06.84,5.31,3.3,9.82,8.04,12.72,9.47,5.79,21.59-.25,22.57-11.36.3-3.41-.11-6.89-.35-10.32-1.89-26.94-3.84-53.89-5.73-80.83-.6-8.47-1.07-16.96-1.65-25.43-.09-1.37.3-1.97,1.74-1.86,1.25.09,2.52.06,3.78,0,8.36-.35,15.21-7.45,12.88-16.47-5.55-21.44-10.23-43.11-15.63-64.6-4.45-17.7-6.47-35.61-6.07-53.82.02-.8.63-1.58.97-2.37.55.41,1.27.72,1.61,1.26,7.79,12.39,14.47,25.34,19.74,39.01,4.61,11.97,8.16,24.26,11.04,36.75.76,3.28,1.93,6.39,4.23,8.89,3.85,4.18,8.59,6.06,14.19,4.4,5.28-1.56,8.46-5.31,8.95-10.78.26-2.92-.2-5.96-.71-8.88-4.85-28.09-12.54-55.33-24.95-81.09-5.34-11.09-11.55-21.65-20.01-30.74-9.11-9.78-19.95-16.21-33.5-17.29-12.32-.98-24.67-1.01-36.99.03-12.35,1.05-22.7,6.47-31.43,15.14-7.64,7.59-13.71,16.35-19.2,25.55-6.66,11.17-13.26,22.39-21.66,32.38-1.52,1.8-2.23,3.66-2.22,5.93.05,10.75.07,21.5.12,32.25,0,.49.19.98.35,1.77,1.53-.92,2.92-1.57,4.1-2.49,4.44-3.47,9.02-6.8,13.15-10.61,12.48-11.48,22.16-25.16,30.56-39.79.4-.7,1.26-1.13,1.91-1.68.29.81.83,1.63.82,2.44-.17,15.36-1.18,30.64-5.06,45.59-5.65,21.76-11.34,43.5-17.02,65.25-.59,2.25-1.23,4.48-1.77,6.73-2.15,9.1,3.54,16.71,12.88,17.2,2.37.12,4.75.02,7.52.02ZM269.25,130.7c-1.24-.38-2.01-.68-2.81-.86-27.24-6.22-54.89-8.66-82.78-8.86-13.62-.1-27.26.2-40.64,2.98-27.11,5.62-46.86,21.18-59.32,45.72-8.62,16.98-9.39,34.55-1.85,52.3,4.78,11.26,10.98,21.68,18.63,31.15,5.7,7.06,11.87,13.76,18.12,20.34,3.97,4.18,9.02,6.25,14.97,5.32.43-.07.88,0,1.53,0,0,.8.03,1.45,0,2.1-1.22,25.99-2.46,51.97-3.67,77.96-1.17,25.19-2.33,50.39-3.46,75.58-.09,2.04-.07,4.12.19,6.15.84,6.42,5.48,11.61,11.51,13.08,6.21,1.52,12.4-.83,16.27-6.19,2.31-3.19,3.57-6.83,4-10.7,1.41-12.66,2.74-25.32,4.08-37.99,1.15-10.82,2.25-21.64,3.41-32.46,1.51-14.05,3.05-28.09,4.57-42.14,1.53-14.11,3.11-28.22,4.56-42.34.22-2.15,1.49-1.93,2.91-1.94,1.4,0,2.54-.06,2.75,1.91,1.83,17.48,3.76,34.96,5.64,52.43,1.67,15.5,3.33,31,5,46.5,1.92,17.81,3.77,35.63,5.86,53.42.43,3.7,1.31,7.52,2.86,10.88,2.79,6.06,7.89,9.27,14.68,9,6.21-.24,10.57-3.5,13.16-9.11,1.43-3.09,1.69-6.38,1.54-9.73-1.26-27.85-2.52-55.69-3.76-83.54-1.27-28.44-3.04-56.87-3.66-85.33-.75-34.1-.52-68.22-.75-102.34-.01-1.65.53-2.29,2.18-2.15,5.35.43,10.72.75,16.06,1.26,1.61.15,2.56-.11,3.62-1.54,5.96-8.04,12.05-15.99,18.2-23.88,1.82-2.33,4-4.38,6.39-6.97ZM400.67,128.91c-.11-.34-.11-.58-.23-.7-3.85-4.1-5.08-9.22-5.5-14.59-.34-4.36-.35-8.75-.77-13.1-1.42-14.79-11.62-23.59-26.45-22.97-.71.03-1.42,0-2.22,0-.86-6.32-3.16-11.89-6.72-16.99-9.64-13.83-27.7-18.51-42.77-11.03-18.69,9.28-25.83,33.16-15.34,51.32,7.54,13.06,22.12,20.14,35.81,17.1,15.58-3.45,24.81-13.41,28.63-28.69.15-.59.29-1.18.48-1.96,1.92,2.85,2.62,6.98,2.22,11.53-.3,3.37-.69,6.75-.62,10.12.29,13.9,9.89,23.2,23.3,22.68,3.57-.14,7.09-.68,10.18-2.73ZM182.83,40.39c-7.46.03-14.24,2.21-20.26,6.6-16.58,12.11-20.32,35.32-8.43,52.06,9.85,13.86,28.03,18.7,43.16,11.03,12.35-6.26,19.17-16.67,20.57-30.41,2-19.58-13.81-39.4-35.04-39.29Z"/>
        <path class="cls-1" d="M285.16,322.11c-2.77,0-5.15.1-7.52-.02-9.34-.49-15.03-8.1-12.88-17.2.53-2.26,1.18-4.49,1.77-6.73,5.68-21.75,11.37-43.5,17.02-65.25,3.88-14.95,4.89-30.22,5.06-45.59,0-.81-.54-1.63-.82-2.44-.65.55-1.51.98-1.91,1.68-8.41,14.64-18.09,28.31-30.56,39.79-4.14,3.81-8.72,7.14-13.15,10.61-1.18.92-2.57,1.57-4.1,2.49-.16-.79-.35-1.28-.35-1.77-.05-10.75-.08-21.5-.12-32.25,0-2.27.71-4.13,2.22-5.93,8.41-9.99,15-21.21,21.66-32.38,5.49-9.2,11.56-17.96,19.2-25.55,8.74-8.68,19.08-14.1,31.43-15.14,12.32-1.04,24.67-1.01,36.99-.03,13.54,1.08,24.39,7.51,33.5,17.29,8.46,9.09,14.67,19.65,20.01,30.74,12.41,25.76,20.1,53,24.95,81.09.5,2.92.97,5.96.71,8.88-.49,5.47-3.67,9.22-8.95,10.78-5.6,1.66-10.34-.22-14.19-4.4-2.3-2.5-3.47-5.6-4.23-8.89-2.88-12.49-6.42-24.78-11.04-36.75-5.27-13.67-11.95-26.62-19.74-39.01-.34-.54-1.07-.84-1.61-1.26-.34.79-.95,1.57-.97,2.37-.39,18.21,1.62,36.12,6.07,53.82,5.4,21.48,10.08,43.15,15.63,64.6,2.33,9.02-4.52,16.12-12.88,16.47-1.26.05-2.53.09-3.78,0-1.44-.11-1.83.49-1.74,1.86.58,8.47,1.05,16.96,1.65,25.43,1.9,26.94,3.84,53.89,5.73,80.83.24,3.44.65,6.92.35,10.32-.98,11.11-13.11,17.16-22.57,11.36-4.73-2.9-7.2-7.42-8.04-12.72-1.21-7.66-2.16-15.37-3.16-23.06-1.56-12.04-3.07-24.08-4.61-36.12-1.66-13.03-3.33-26.05-5.01-39.07-.74-5.72-1.55-11.43-2.23-17.16-.15-1.26-.57-1.72-1.85-1.66-2.05.09-4.12.09-6.17,0-1.19-.04-1.58.39-1.73,1.56-1.79,14.21-3.66,28.42-5.46,42.63-1.95,15.4-3.86,30.8-5.8,46.2-1.01,8.03-1.92,16.07-3.09,24.08-.4,2.73-1.14,5.49-2.24,8.01-3.14,7.23-10.62,10.94-17.74,9.09-7.32-1.9-11.87-8.81-11.32-16.85.84-12.25,1.5-24.5,2.31-36.75,1.49-22.38,3.04-44.76,4.57-67.13.24-3.49.47-6.99.72-10.85Z"/>
        <path class="cls-1" d="M269.25,130.7c-2.39,2.59-4.57,4.64-6.39,6.97-6.16,7.89-12.24,15.84-18.2,23.88-1.06,1.43-2.01,1.69-3.62,1.54-5.35-.51-10.71-.82-16.06-1.26-1.64-.13-2.19.51-2.18,2.15.23,34.11,0,68.24.75,102.34.63,28.46,2.39,56.89,3.66,85.33,1.25,27.85,2.5,55.69,3.76,83.54.15,3.35-.11,6.64-1.54,9.73-2.59,5.61-6.96,8.87-13.16,9.11-6.79.27-11.89-2.94-14.68-9-1.55-3.36-2.42-7.18-2.86-10.88-2.09-17.79-3.94-35.61-5.86-53.42-1.67-15.5-3.33-31-5-46.5-1.89-17.48-3.81-34.95-5.64-52.43-.21-1.98-1.35-1.92-2.75-1.91-1.42.01-2.69-.21-2.91,1.94-1.45,14.12-3.03,28.23-4.56,42.34-1.53,14.05-3.07,28.09-4.57,42.14-1.16,10.82-2.27,21.64-3.41,32.46-1.34,12.66-2.66,25.33-4.08,37.99-.43,3.87-1.7,7.5-4,10.7-3.88,5.36-10.07,7.71-16.27,6.19-6.03-1.47-10.67-6.67-11.51-13.08-.26-2.02-.28-4.1-.19-6.15,1.13-25.19,2.29-50.39,3.46-75.58,1.21-25.99,2.45-51.97,3.67-77.96.03-.64,0-1.29,0-2.1-.64,0-1.09-.06-1.53,0-5.95.93-11.01-1.14-14.97-5.32-6.25-6.59-12.42-13.28-18.12-20.34-7.65-9.47-13.85-19.89-18.63-31.15-7.53-17.76-6.77-35.32,1.85-52.3,12.45-24.54,32.2-40.1,59.32-45.72,13.38-2.77,27.02-3.08,40.64-2.98,27.88.21,55.53,2.65,82.78,8.86.8.18,1.57.48,2.81.86ZM135.87,167.65c-4.35,1.8-8.25,4.14-11.64,7.23-12.65,11.51-16.21,24.88-7.87,40.15,3.93,7.19,8.72,13.91,13.24,20.77,1.77,2.69,3.86,5.17,5.81,7.75.16-.05.31-.1.47-.16v-75.74Z"/>
        <path class="cls-1" d="M400.67,128.91c-3.09,2.05-6.62,2.59-10.18,2.73-13.42.52-23.01-8.78-23.3-22.68-.07-3.37.32-6.75.62-10.12.4-4.55-.3-8.68-2.22-11.53-.19.78-.33,1.37-.48,1.96-3.82,15.27-13.05,25.23-28.63,28.69-13.68,3.03-28.27-4.04-35.81-17.1-10.48-18.17-3.34-42.04,15.34-51.32,15.07-7.49,33.13-2.8,42.77,11.03,3.56,5.1,5.86,10.67,6.72,16.99.8,0,1.51.03,2.22,0,14.83-.62,25.03,8.18,26.45,22.97.42,4.35.43,8.74.77,13.1.42,5.37,1.64,10.49,5.5,14.59.12.13.12.36.23.7Z"/>
        <path class="cls-1" d="M182.83,40.39c21.23-.12,37.04,19.7,35.04,39.29-1.4,13.74-8.23,24.15-20.57,30.41-15.13,7.67-33.32,2.83-43.16-11.03-11.89-16.74-8.15-39.94,8.43-52.06,6.02-4.4,12.81-6.57,20.26-6.6Z"/>
        <path class="cls-2" d="M135.87,167.65v75.74c-.16.05-.31.1-.47.16-1.95-2.58-4.04-5.06-5.81-7.75-4.52-6.86-9.31-13.58-13.24-20.77-8.34-15.27-4.78-28.64,7.87-40.15,3.39-3.09,7.29-5.43,11.64-7.23Z"/>
      </g>
    </g>
  </g>
</svg>